<mxfile host="app.diagrams.net" modified="2024-06-21T14:38:20.782Z" agent="Mozilla/5.0 (Windows NT 10.0; Win64; x64) AppleWebKit/537.36 (KHTML, like Gecko) Chrome/126.0.0.0 Safari/537.36 Edg/126.0.0.0" etag="_rk8pC9KYu5Nrc28W9HS" version="24.5.5" type="github">
  <diagram name="Page-1" id="c7488fd3-1785-93aa-aadb-54a6760d102a">
    <mxGraphModel dx="1213" dy="715" grid="1" gridSize="10" guides="1" tooltips="1" connect="1" arrows="1" fold="1" page="1" pageScale="1" pageWidth="1100" pageHeight="850" background="none" math="0" shadow="0">
      <root>
        <mxCell id="0" />
        <mxCell id="1" parent="0" />
        <mxCell id="fc6EvpgwyI7G-k5-crlY-3" value="" style="edgeStyle=none;curved=1;rounded=0;orthogonalLoop=1;jettySize=auto;html=1;fontSize=12;startSize=8;endSize=8;" edge="1" parent="1" source="fc6EvpgwyI7G-k5-crlY-1" target="fc6EvpgwyI7G-k5-crlY-2">
          <mxGeometry relative="1" as="geometry" />
        </mxCell>
        <mxCell id="fc6EvpgwyI7G-k5-crlY-1" value="" style="ellipse;whiteSpace=wrap;html=1;aspect=fixed;strokeColor=#000000;fillStyle=solid;fillColor=#000000;" vertex="1" parent="1">
          <mxGeometry x="310" y="40" width="30" height="30" as="geometry" />
        </mxCell>
        <mxCell id="fc6EvpgwyI7G-k5-crlY-5" value="" style="edgeStyle=none;curved=1;rounded=0;orthogonalLoop=1;jettySize=auto;html=1;fontSize=12;startSize=8;endSize=8;" edge="1" parent="1" source="fc6EvpgwyI7G-k5-crlY-2">
          <mxGeometry relative="1" as="geometry">
            <mxPoint x="325" y="170" as="targetPoint" />
          </mxGeometry>
        </mxCell>
        <mxCell id="fc6EvpgwyI7G-k5-crlY-2" value="用户登录" style="rounded=1;whiteSpace=wrap;html=1;" vertex="1" parent="1">
          <mxGeometry x="281.25" y="110" width="87.5" height="40" as="geometry" />
        </mxCell>
        <mxCell id="fc6EvpgwyI7G-k5-crlY-10" value="失败" style="edgeStyle=none;curved=1;rounded=0;orthogonalLoop=1;jettySize=auto;html=1;fontSize=12;startSize=8;endSize=8;" edge="1" parent="1" source="fc6EvpgwyI7G-k5-crlY-6" target="fc6EvpgwyI7G-k5-crlY-9">
          <mxGeometry relative="1" as="geometry" />
        </mxCell>
        <mxCell id="fc6EvpgwyI7G-k5-crlY-34" value="成功" style="edgeStyle=none;curved=1;rounded=0;orthogonalLoop=1;jettySize=auto;html=1;fontSize=12;startSize=8;endSize=8;" edge="1" parent="1" source="fc6EvpgwyI7G-k5-crlY-6" target="fc6EvpgwyI7G-k5-crlY-33">
          <mxGeometry relative="1" as="geometry" />
        </mxCell>
        <mxCell id="fc6EvpgwyI7G-k5-crlY-6" value="" style="rhombus;whiteSpace=wrap;html=1;" vertex="1" parent="1">
          <mxGeometry x="306.88" y="170" width="36.25" height="30" as="geometry" />
        </mxCell>
        <mxCell id="fc6EvpgwyI7G-k5-crlY-23" style="edgeStyle=none;curved=0;rounded=0;orthogonalLoop=1;jettySize=auto;html=1;fontSize=12;startSize=8;endSize=8;" edge="1" parent="1">
          <mxGeometry relative="1" as="geometry">
            <mxPoint x="368.75" y="130" as="targetPoint" />
            <mxPoint x="471.3351851851851" y="170" as="sourcePoint" />
            <Array as="points">
              <mxPoint x="471" y="130" />
              <mxPoint x="430" y="130" />
            </Array>
          </mxGeometry>
        </mxCell>
        <mxCell id="fc6EvpgwyI7G-k5-crlY-9" value="显示错误信息" style="rounded=1;whiteSpace=wrap;html=1;" vertex="1" parent="1">
          <mxGeometry x="409.99" y="170" width="120" height="35" as="geometry" />
        </mxCell>
        <mxCell id="fc6EvpgwyI7G-k5-crlY-25" style="edgeStyle=none;curved=1;rounded=0;orthogonalLoop=1;jettySize=auto;html=1;fontSize=12;startSize=8;endSize=8;entryX=0.5;entryY=0;entryDx=0;entryDy=0;" edge="1" parent="1" source="fc6EvpgwyI7G-k5-crlY-26" target="fc6EvpgwyI7G-k5-crlY-29">
          <mxGeometry relative="1" as="geometry">
            <mxPoint x="582.4850000000001" y="680" as="targetPoint" />
          </mxGeometry>
        </mxCell>
        <mxCell id="fc6EvpgwyI7G-k5-crlY-26" value="输入支付密码" style="rounded=1;whiteSpace=wrap;html=1;" vertex="1" parent="1">
          <mxGeometry x="272.5" y="410" width="105.01" height="30" as="geometry" />
        </mxCell>
        <mxCell id="fc6EvpgwyI7G-k5-crlY-27" value="密码正确" style="edgeStyle=none;curved=1;rounded=0;orthogonalLoop=1;jettySize=auto;html=1;fontSize=12;startSize=8;endSize=8;" edge="1" parent="1" source="fc6EvpgwyI7G-k5-crlY-29" target="fc6EvpgwyI7G-k5-crlY-30">
          <mxGeometry relative="1" as="geometry" />
        </mxCell>
        <mxCell id="fc6EvpgwyI7G-k5-crlY-28" value="密码错误" style="edgeStyle=none;curved=1;rounded=0;orthogonalLoop=1;jettySize=auto;html=1;fontSize=12;startSize=8;endSize=8;" edge="1" parent="1" source="fc6EvpgwyI7G-k5-crlY-29" target="fc6EvpgwyI7G-k5-crlY-32">
          <mxGeometry relative="1" as="geometry" />
        </mxCell>
        <mxCell id="fc6EvpgwyI7G-k5-crlY-29" value="" style="rhombus;whiteSpace=wrap;html=1;" vertex="1" parent="1">
          <mxGeometry x="310" y="480" width="30" height="30" as="geometry" />
        </mxCell>
        <mxCell id="fc6EvpgwyI7G-k5-crlY-51" value="" style="edgeStyle=none;curved=1;rounded=0;orthogonalLoop=1;jettySize=auto;html=1;fontSize=12;startSize=8;endSize=8;" edge="1" parent="1" source="fc6EvpgwyI7G-k5-crlY-30" target="fc6EvpgwyI7G-k5-crlY-50">
          <mxGeometry relative="1" as="geometry" />
        </mxCell>
        <mxCell id="fc6EvpgwyI7G-k5-crlY-30" value="支付成功" style="rounded=1;whiteSpace=wrap;html=1;" vertex="1" parent="1">
          <mxGeometry x="277.51" y="560" width="95" height="45" as="geometry" />
        </mxCell>
        <mxCell id="fc6EvpgwyI7G-k5-crlY-43" style="edgeStyle=none;curved=1;rounded=0;orthogonalLoop=1;jettySize=auto;html=1;entryX=0;entryY=0.5;entryDx=0;entryDy=0;fontSize=12;startSize=8;endSize=8;" edge="1" parent="1" source="fc6EvpgwyI7G-k5-crlY-32" target="fc6EvpgwyI7G-k5-crlY-41">
          <mxGeometry relative="1" as="geometry" />
        </mxCell>
        <mxCell id="fc6EvpgwyI7G-k5-crlY-32" value="显示错误信息" style="rounded=1;whiteSpace=wrap;html=1;" vertex="1" parent="1">
          <mxGeometry x="460" y="475" width="90" height="35" as="geometry" />
        </mxCell>
        <mxCell id="fc6EvpgwyI7G-k5-crlY-37" value="" style="edgeStyle=none;curved=1;rounded=0;orthogonalLoop=1;jettySize=auto;html=1;fontSize=12;startSize=8;endSize=8;" edge="1" parent="1" source="fc6EvpgwyI7G-k5-crlY-33" target="fc6EvpgwyI7G-k5-crlY-36">
          <mxGeometry relative="1" as="geometry" />
        </mxCell>
        <mxCell id="fc6EvpgwyI7G-k5-crlY-33" value="选择车票" style="rounded=1;whiteSpace=wrap;html=1;" vertex="1" parent="1">
          <mxGeometry x="270" y="250" width="112.5" height="40" as="geometry" />
        </mxCell>
        <mxCell id="fc6EvpgwyI7G-k5-crlY-38" style="edgeStyle=none;curved=1;rounded=0;orthogonalLoop=1;jettySize=auto;html=1;fontSize=12;startSize=8;endSize=8;" edge="1" parent="1" source="fc6EvpgwyI7G-k5-crlY-36">
          <mxGeometry relative="1" as="geometry">
            <mxPoint x="325" y="410" as="targetPoint" />
          </mxGeometry>
        </mxCell>
        <mxCell id="fc6EvpgwyI7G-k5-crlY-36" value="输入个人信息" style="whiteSpace=wrap;html=1;rounded=1;" vertex="1" parent="1">
          <mxGeometry x="265" y="330" width="120" height="40" as="geometry" />
        </mxCell>
        <mxCell id="fc6EvpgwyI7G-k5-crlY-45" value="次数&amp;lt;=3" style="edgeStyle=none;curved=0;rounded=0;orthogonalLoop=1;jettySize=auto;html=1;fontSize=12;startSize=8;endSize=8;entryX=1;entryY=0.5;entryDx=0;entryDy=0;" edge="1" parent="1" source="fc6EvpgwyI7G-k5-crlY-41" target="fc6EvpgwyI7G-k5-crlY-26">
          <mxGeometry relative="1" as="geometry">
            <mxPoint x="635" y="405" as="targetPoint" />
            <Array as="points">
              <mxPoint x="635" y="425" />
            </Array>
          </mxGeometry>
        </mxCell>
        <mxCell id="fc6EvpgwyI7G-k5-crlY-47" value="次数&amp;gt;3" style="edgeStyle=none;curved=1;rounded=0;orthogonalLoop=1;jettySize=auto;html=1;fontSize=12;startSize=8;endSize=8;" edge="1" parent="1" source="fc6EvpgwyI7G-k5-crlY-41" target="fc6EvpgwyI7G-k5-crlY-46">
          <mxGeometry relative="1" as="geometry" />
        </mxCell>
        <mxCell id="fc6EvpgwyI7G-k5-crlY-41" value="输入次数" style="rhombus;whiteSpace=wrap;html=1;" vertex="1" parent="1">
          <mxGeometry x="600" y="458.13" width="70" height="68.75" as="geometry" />
        </mxCell>
        <mxCell id="fc6EvpgwyI7G-k5-crlY-49" value="" style="edgeStyle=none;curved=1;rounded=0;orthogonalLoop=1;jettySize=auto;html=1;fontSize=12;startSize=8;endSize=8;" edge="1" parent="1" source="fc6EvpgwyI7G-k5-crlY-46" target="fc6EvpgwyI7G-k5-crlY-48">
          <mxGeometry relative="1" as="geometry" />
        </mxCell>
        <mxCell id="fc6EvpgwyI7G-k5-crlY-46" value="账户锁定" style="rounded=1;whiteSpace=wrap;html=1;" vertex="1" parent="1">
          <mxGeometry x="577.5" y="580" width="115" height="40" as="geometry" />
        </mxCell>
        <mxCell id="fc6EvpgwyI7G-k5-crlY-48" value="" style="ellipse;whiteSpace=wrap;html=1;rounded=1;fillColor=#000000;" vertex="1" parent="1">
          <mxGeometry x="617.5" y="650" width="35" height="30" as="geometry" />
        </mxCell>
        <mxCell id="fc6EvpgwyI7G-k5-crlY-50" value="" style="ellipse;whiteSpace=wrap;html=1;rounded=1;fillColor=#000000;" vertex="1" parent="1">
          <mxGeometry x="306.88" y="642.5" width="35.01" height="37.5" as="geometry" />
        </mxCell>
      </root>
    </mxGraphModel>
  </diagram>
</mxfile>
